<?xml version="1.0" ?><svg data-name="Layer 1" id="Layer_1" viewBox="0 0 64 64" xmlns="http://www.w3.org/2000/svg"><defs><style>.cls-1{fill:#8bdf9e;}.cls-2{fill:#c397ff;}.cls-3{fill:#72c485;}.cls-4{fill:#918291;}.cls-5{fill:#b189e8;}</style></defs><polygon class="cls-1" points="54.614 52.179 54.614 64 43.307 64 43.307 53.721 47.419 50.637 50.503 53.721 52.558 50.637 54.614 52.179"/><polygon class="cls-1" points="20.693 53.721 20.693 64 9.386 64 9.386 52.179 11.442 50.637 13.497 53.721 16.581 50.637 20.693 53.721"/><path class="cls-1" d="M16.581,18.771v6.168H12.469a3.084,3.084,0,0,1,0-6.168Z"/><path class="cls-1" d="M47.419,18.771v6.168H51.7a3.084,3.084,0,0,0,0-6.168Z"/><path class="cls-2" d="M47.881,32.839c-.143-.051-.308-.1-.462-.144l-.391-.37H16.972l-.391.37a1.161,1.161,0,0,0-.175.052c-.1.031-.2.061-.287.092A12.406,12.406,0,0,0,7.33,44.465V55.772l4.112-3.084,1.336,2,.719,1.079,3.084-3.084,2.056,3.084V64H45.363V55.772l2.056-3.084L50.5,55.772l2.055-3.084,4.112,3.084V44.465A12.406,12.406,0,0,0,47.881,32.839Z"/><path class="cls-1" d="M37.715,39.469l.956,1.912L32.3,44.568a16.352,16.352,0,0,0-.822-2.159l-5.14-2.056-1.583-3.268,5.037-2.354,2.827-1.316,6.507,3.69-1.481,2.22Z"/><path class="cls-3" d="M38.671,41.381,32.3,44.568a16.352,16.352,0,0,0-.822-2.159l-5.14-2.056-1.583-3.268,5.037-2.354h0a4.739,4.739,0,0,0,4.739,4.738h3.186Z"/><path class="cls-1" d="M49.475,4.376V24.934A12.3,12.3,0,0,1,39.124,37.1a11.5,11.5,0,0,1-1.984.165H26.86a11.855,11.855,0,0,1-2.107-.185A12.3,12.3,0,0,1,14.525,24.934V4.376A4.111,4.111,0,0,1,18.637.264H45.363A4.111,4.111,0,0,1,49.475,4.376Z"/><path class="cls-3" d="M22.264,32.33a12.291,12.291,0,0,1-2.447-7.391V4.38A4.111,4.111,0,0,1,23.929.269H18.637A4.111,4.111,0,0,0,14.525,4.38V24.939a12.3,12.3,0,0,0,10.228,12.15,11.855,11.855,0,0,0,2.107.185h5.293a11.858,11.858,0,0,1-2.108-.185A12.288,12.288,0,0,1,22.264,32.33Z"/><path class="cls-4" d="M43.759,17.743a3.084,3.084,0,1,1-5.571,2.118,1.71,1.71,0,0,1-.02-.319,3.1,3.1,0,0,1,.575-1.8Z"/><path class="cls-3" d="M34.056,17.743v4.112a2.056,2.056,0,1,1-4.112,0V17.743Z"/><path class="cls-4" d="M25.832,19.542a1.71,1.71,0,0,1-.02.319,3.082,3.082,0,1,1-5.571-2.118h5.016A3.1,3.1,0,0,1,25.832,19.542Z"/><polygon class="cls-3" points="11.442 52.693 9.386 54.235 9.386 64 12.983 64 12.983 55.006 11.442 52.693"/><rect class="cls-4" height="3.084" width="6.168" x="49.475" y="10.41"/><rect class="cls-4" height="3.084" width="6.168" x="8.358" y="10.41"/><path class="cls-5" d="M12.778,54.693l-1.336-2L7.33,55.772V44.465a12.406,12.406,0,0,1,8.789-11.626c.092-.031.185-.061.287-.092C12.557,36.524,11.551,45.994,12.778,54.693Z"/><path class="cls-4" d="M49.475,7.46V9.516H45.363v2.055a1.028,1.028,0,0,1-2.056,0V9.516H39.2v2.055a1.028,1.028,0,1,1-2.055,0V9.516H33.028v2.055a1.028,1.028,0,1,1-2.056,0V9.516H26.86v2.055a1.028,1.028,0,1,1-2.055,0V9.516H20.693v2.055a1.028,1.028,0,1,1-2.056,0V9.516H14.525V7.46h4.112V5.4a1.028,1.028,0,0,1,2.056,0V7.46h4.112V5.4a1.028,1.028,0,1,1,2.055,0V7.46h4.112V5.4a1.028,1.028,0,1,1,2.056,0V7.46H37.14V5.4a1.028,1.028,0,1,1,2.055,0V7.46h4.112V5.4a1.028,1.028,0,0,1,2.056,0V7.46Z"/><path class="cls-4" d="M45.363,18.771H18.637a1.028,1.028,0,1,1,0-2.056H45.363a1.028,1.028,0,0,1,0,2.056Z"/><path class="cls-4" d="M38.168,33.162a1.018,1.018,0,0,1-.755-.331c-.14-.146-3.6-3.705-11.458-2.76a1.028,1.028,0,1,1-.245-2.041c8.954-1.08,13.043,3.223,13.212,3.407a1.027,1.027,0,0,1-.754,1.725Z"/><path class="cls-4" d="M55.642,16.715a1.027,1.027,0,0,1-1.028-1.027v-7.2a1.028,1.028,0,0,1,2.056,0v7.2A1.027,1.027,0,0,1,55.642,16.715Z"/><path class="cls-4" d="M8.358,16.715A1.027,1.027,0,0,1,7.33,15.688v-7.2a1.028,1.028,0,1,1,2.056,0v7.2A1.027,1.027,0,0,1,8.358,16.715Z"/></svg>