<?xml version="1.0" ?><svg data-name="Layer 1" id="Layer_1" viewBox="0 0 64 64" xmlns="http://www.w3.org/2000/svg"><defs><style>.cls-1{fill:#4f4c5f;}.cls-2{fill:#ceccd9;}.cls-3{fill:#bbb5c7;}.cls-4{fill:#918291;}.cls-5{fill:#857485;}.cls-6{fill:#403d4f;}</style></defs><path class="cls-1" d="M59.3,11.106,34.685.661a6.161,6.161,0,0,0-5.253.411L13.476,10.191a6.16,6.16,0,0,0-3.105,5.356V32.13A21.539,21.539,0,0,0,18,48.6,12.323,12.323,0,0,0,6.259,60.916V64h51.4V60.916a12.334,12.334,0,0,0-11.9-12.327A22.359,22.359,0,0,0,53.55,31.616V18.765l6.086-4.05A2.064,2.064,0,0,0,59.3,11.106Z"/><path class="cls-2" d="M48.41,24.306v9.253a6.389,6.389,0,0,1-6.58,6.168h-.617v5.141a2.133,2.133,0,0,1-2.19,2.056H24.9a2.133,2.133,0,0,1-2.19-2.056V39.727h-.617a6.389,6.389,0,0,1-6.579-6.168V24.306c0-8.522,7.361-15.421,16.449-15.421S48.41,15.784,48.41,24.306Z"/><path class="cls-3" d="M27.591,44.872v-5.14h-.616a6.39,6.39,0,0,1-6.58-6.169V24.311c0-7.743,6.081-14.126,14.007-15.233a17.5,17.5,0,0,0-2.441-.188c-9.088,0-16.449,6.9-16.449,15.421v9.252a6.389,6.389,0,0,0,6.579,6.169h.617v5.14a2.133,2.133,0,0,0,2.19,2.056h4.883A2.133,2.133,0,0,1,27.591,44.872Z"/><path class="cls-4" d="M43.187,22.059a5.145,5.145,0,0,1-9.026,4.215,1.035,1.035,0,0,1,.359-1.593l7.207-3.362A1.037,1.037,0,0,1,43.187,22.059Z"/><path class="cls-5" d="M43.187,22.059a1.037,1.037,0,0,0-1.46-.74l-.363.17a1,1,0,0,1,.326.57,5.166,5.166,0,0,1-2.889,5.6,5.1,5.1,0,0,1-1.41.408,5.1,5.1,0,0,0,2.907-.408A5.169,5.169,0,0,0,43.187,22.059Z"/><path class="cls-4" d="M34.109,33.029a1.032,1.032,0,0,1-.884,1.563H30.7a1.032,1.032,0,0,1-.884-1.563l1.264-2.108a1.031,1.031,0,0,1,1.769,0Z"/><path class="cls-5" d="M34.109,33.029l-1.264-2.108A1.025,1.025,0,0,0,31.4,30.6a1.015,1.015,0,0,1,.32.325l1.265,2.108a1.032,1.032,0,0,1-.885,1.562h1.128A1.031,1.031,0,0,0,34.109,33.029Z"/><path class="cls-4" d="M29.4,24.681a1.035,1.035,0,0,1,.36,1.593,5.146,5.146,0,0,1-9.027-4.215,1.037,1.037,0,0,1,1.46-.74Z"/><path class="cls-4" d="M28.876,43.84v3.084H26.82V43.84a1.028,1.028,0,1,1,2.056,0Z"/><path class="cls-4" d="M32.989,43.84v3.084H30.933V43.84a1.028,1.028,0,1,1,2.056,0Z"/><path class="cls-4" d="M37.1,43.84v3.084H35.045V43.84a1.028,1.028,0,1,1,2.056,0Z"/><path class="cls-6" d="M18.6,59.888V64H16.54V59.888a1.028,1.028,0,1,1,2.056,0Z"/><path class="cls-6" d="M47.382,59.888V64H45.325V59.888a1.029,1.029,0,0,1,2.057,0Z"/><path class="cls-5" d="M20.813,22.059a1.037,1.037,0,0,1,1.46-.74l.363.17a1,1,0,0,0-.326.57,5.166,5.166,0,0,0,2.889,5.6,5.1,5.1,0,0,0,1.41.408,5.1,5.1,0,0,1-2.907-.408A5.169,5.169,0,0,1,20.813,22.059Z"/></svg>