<?xml version="1.0" ?><svg id="Layer_1" style="enable-background:new 0 0 24 24;" version="1.1" viewBox="0 0 24 24" xml:space="preserve" xmlns="http://www.w3.org/2000/svg" xmlns:xlink="http://www.w3.org/1999/xlink"><g id="XMLID_1452_"><ellipse cx="3.499" cy="20.499" id="XMLID_1782_" rx="0.497" ry="0.503" style="fill:#303C42;" transform="matrix(0.7071 -0.7071 0.7071 0.7071 -13.4699 8.4783)"/><path d="   M18.693,4.194L21.5,1.5l0,0c0.656,1.53,1,3.21,1,4.5c0,3.064-1.353,5.888-3.89,8.148l0,0c-1.799,1.749-2.61,3.368-2.246,6.499   c0.036,0.307,0.092,0.604,0.136,0.896c0,0.551-0.39,0.957-1,0.957s-1-0.449-1-1c0.417-2.188-0.045-2.533-0.401-3.279   c-0.381-0.799-0.726-2.109,0.216-3.823c1.053-1.916,2.555-2.349,3.333-2.935c0.778-0.585-0.369-3.761,1.428-4.034   C20.873,7.157,19.358,4.788,18.693,4.194" id="XMLID_1456_" style="fill:none;stroke:#303C42;stroke-linecap:round;stroke-linejoin:round;stroke-miterlimit:10;"/><path d="   M18.693,4.194L1.999,18.996c-0.64,0.575-0.667,1.569-0.059,2.177l0.888,0.888c0.558,0.558,1.454,0.588,2.048,0.068l6.628-5.884" id="XMLID_1455_" style="fill:none;stroke:#303C42;stroke-linecap:round;stroke-linejoin:round;stroke-miterlimit:10;"/><line id="XMLID_1453_" style="fill:none;stroke:#303C42;stroke-linecap:round;stroke-linejoin:round;stroke-miterlimit:10;" x1="14.474" x2="8.433" y1="18.974" y2="13.29"/><path d="   M22.5,18c0,0.828-0.672,1.5-1.5,1.5s-1.5-0.672-1.5-1.5s1.5-2.5,1.5-2.5S22.5,17.172,22.5,18z" id="XMLID_1454_" style="fill:none;stroke:#303C42;stroke-linecap:round;stroke-linejoin:round;stroke-miterlimit:10;"/></g></svg>