<?xml version="1.0" ?><svg id="Layer_1" style="enable-background:new 0 0 24 24;" version="1.1" viewBox="0 0 24 24" xml:space="preserve" xmlns="http://www.w3.org/2000/svg" xmlns:xlink="http://www.w3.org/1999/xlink"><g id="XMLID_1_"><polygon id="XMLID_1302_" points="   8,8.5 5.5,12.5 10.5,12.5  " style="fill:none;stroke:#303C42;stroke-linecap:round;stroke-linejoin:round;stroke-miterlimit:10;"/><polygon id="XMLID_1303_" points="   16,8.5 18.5,12.5 13.5,12.5  " style="fill:none;stroke:#303C42;stroke-linecap:round;stroke-linejoin:round;stroke-miterlimit:10;"/><path d="   M6.51,15.591c0.028,1.385,0.679,2.629,1.703,3.52l0.504-0.936l1.761,0.948l-0.541,1.006c0.639,0.237,1.336,0.371,2.068,0.371   c0.178,0,0.346-0.032,0.519-0.047l-0.188-1.296l1.979-0.288l0.156,1.076c1.762-0.811,2.991-2.443,3.029-4.354H6.51z" id="XMLID_1304_" style="fill:none;stroke:#303C42;stroke-linecap:round;stroke-linejoin:round;stroke-miterlimit:10;"/><path d="   M13.5,5.675V5.5c0-2.209-1.791-4-4-4v2c1.105,0,2,0.895,2,2v0.497" id="XMLID_1305_" style="fill:none;stroke:#303C42;stroke-linecap:round;stroke-linejoin:round;stroke-miterlimit:10;"/><path d="   M15,5.5c-1.067,0-2.081,0.256-3,0.712C11.081,5.756,10.067,5.5,9,5.5c-4.142,0-7.5,3.806-7.5,8.5s3.358,8.5,7.5,8.5   c1.067,0,4.933,0,6,0c4.142,0,7.5-3.806,7.5-8.5S19.142,5.5,15,5.5z" id="XMLID_1306_" style="fill:none;stroke:#303C42;stroke-linecap:round;stroke-linejoin:round;stroke-miterlimit:10;"/></g></svg>