<?xml version="1.0" ?><svg id="Layer_1" style="enable-background:new 0 0 24 24;" version="1.1" viewBox="0 0 24 24" xml:space="preserve" xmlns="http://www.w3.org/2000/svg" xmlns:xlink="http://www.w3.org/1999/xlink"><g id="XMLID_1307_"><path d="   M13.5,5.675V5.5c0-2.209-1.791-4-4-4v2c1.105,0,2,0.895,2,2v0.497" id="XMLID_1308_" style="fill:none;stroke:#303C42;stroke-linecap:round;stroke-linejoin:round;stroke-miterlimit:10;"/><path d="   M6.5,9.5v2c0,0.552,0.448,1,1,1h3L6.5,9.5z" id="XMLID_1309_" style="fill:none;stroke:#303C42;stroke-linecap:round;stroke-linejoin:round;stroke-miterlimit:10;"/><path d="   M17.5,9.5v2c0,0.552-0.448,1-1,1h-3L17.5,9.5z" id="XMLID_1310_" style="fill:none;stroke:#303C42;stroke-linecap:round;stroke-linejoin:round;stroke-miterlimit:10;"/><polyline id="XMLID_1311_" points="   6.413,15.718 6.721,17.264 8.328,16.932 9.305,18.244 10.739,17.445 12,18.5 13.259,17.445 14.697,18.244 15.675,16.931    17.283,17.262 17.587,15.718  " style="fill:none;stroke:#303C42;stroke-linecap:round;stroke-linejoin:round;stroke-miterlimit:10;"/><path d="   M15,5.5c-1.067,0-2.081,0.256-3,0.712C11.081,5.756,10.067,5.5,9,5.5c-4.142,0-7.5,3.806-7.5,8.5s3.358,8.5,7.5,8.5   c1.067,0,4.933,0,6,0c4.142,0,7.5-3.806,7.5-8.5S19.142,5.5,15,5.5z" id="XMLID_1312_" style="fill:none;stroke:#303C42;stroke-linecap:round;stroke-linejoin:round;stroke-miterlimit:10;"/></g></svg>